<?xml version="1.0" encoding="UTF-8"?> <svg xmlns="http://www.w3.org/2000/svg" xmlns:xlink="http://www.w3.org/1999/xlink" version="1.1" id="Layer_1" x="0px" y="0px" viewBox="0 0 942.4 201.3" style="enable-background:new 0 0 942.4 201.3;" xml:space="preserve"> <style type="text/css"> .st0{fill:#00718F;} </style> <g> <path class="st0" d="M100.7,10.6c-49.9,0-90.3,40.4-90.3,90.3s40.4,90.3,90.3,90.3c49.9,0,90.3-40.4,90.3-90.3 S150.5,10.6,100.7,10.6z M130.1,133.4l-3.2,2.3c-12.7,8.2-27.7,11.8-42.6,9c-13.5-2.5-25-9.9-31.7-22c-2.1-4-4.2-8-6.2-12 c1.3-1.1,2.6-2.2,3.9-3.2c5.9-3.8,11.5-2.1,15.5,3.5c4.9,7.8,12.5,12.4,21.5,13.8c10.7,1.5,21-1.1,29.9-7 c5.1-3.6,9.3-8.2,12.2-13.8c1.5-3.1,2.5-6.4,3.1-9.8c1.4-8.4-0.4-16.4-6.2-22.9c-6.1-6.5-14.2-10-23.1-10.6c-8.8-0.5-17,2-24.4,6.7 C69.4,73.4,60.5,80,52,87.2c-2.6,2.3-5.5,4.8-8.9,5.7c-2.2,0.5-4.2,0-5.5-1.9c-0.6-0.8-0.9-1.7-1.2-2.6 c11.1-11,23.4-20.7,36.6-29.2c10.5-6.5,22.3-9.8,34.6-9.4c11.7,0.7,22.6,4.6,31.2,12.7l1.6,1.6c8.9,9.5,12.6,21.5,11.3,34.4 c-0.5,3.3-1.3,6.5-2.3,9.7C145.6,118.4,138.7,126.8,130.1,133.4z M154.2,145.8c-5.3,0-9.6-4.3-9.6-9.6c0-5.3,4.3-9.6,9.6-9.6 s9.6,4.3,9.6,9.6C163.8,141.5,159.5,145.8,154.2,145.8z"></path> <path class="st0" d="M409.5,56.5h7.5l2,5.1h2.8L414.2,42h-1.7L405,61.6h2.6L409.5,56.5z M412.5,48.3c0.4-1,0.6-1.8,0.8-2.4h0 c0.1,0.6,0.4,1.4,0.7,2.4l2,5.9h-5.8L412.5,48.3z"></path> <path class="st0" d="M395.9,61.7l-0.7,2.2l0.9,0c0.9,0,1.3,0.3,1.3,0.8c0,0.6-0.4,0.9-1.1,0.9c-0.5,0-1-0.1-1.4-0.4l-0.4,1.2 c0.5,0.3,1.1,0.4,1.9,0.4c0.7,0,1.4-0.2,2-0.5c0.7-0.4,1-1,1-1.6c0-1.1-0.7-1.7-2-1.8l0.3-1c1.9,0,3.7-0.5,5.5-1.6h0l-0.8-2 c-1.5,0.8-3.1,1.2-4.7,1.2c-2.1,0-3.9-0.7-5.1-2.2c-1.2-1.4-1.9-3.2-1.9-5.5c0-2.2,0.6-4,1.9-5.4c1.3-1.5,3.1-2.2,5.2-2.2 c1.8,0,3.4,0.5,5,1.4l0-2.6c-1.3-0.8-2.9-1.1-5-1.1c-2.9,0-5.3,1-7.2,2.9c-1.8,1.9-2.8,4.3-2.8,7.2c0,2.6,0.7,4.8,2.1,6.6 C391.4,60.4,393.4,61.4,395.9,61.7z"></path> <path class="st0" d="M333.8,61.8c2.8,0,5.1-0.9,6.9-2.6c1.9-1.9,2.9-4.3,2.9-7.3c0-2.8-0.8-5.1-2.5-6.9c-1.8-2-4.2-3-7.3-3 c-2.8,0-5.1,0.9-7,2.8s-2.7,4.3-2.7,7.2c0,3.1,1,5.6,3,7.5C328.9,61,331.1,61.8,333.8,61.8z M328.8,46.3c1.3-1.4,2.9-2.1,5-2.1 c2.2,0,3.9,0.7,5.1,2.1c1.2,1.4,1.8,3.2,1.8,5.5c0,2.3-0.6,4.2-1.9,5.6c-1.3,1.4-2.9,2.1-5,2.1c-2.1,0-3.8-0.7-5-2.1 c-1.3-1.4-1.9-3.2-1.9-5.6C326.9,49.6,327.5,47.7,328.8,46.3z"></path> <rect x="364.6" y="42.1" class="st0" width="2.6" height="19.5"></rect> <path class="st0" d="M432.6,61.8c2.8,0,5.1-0.9,6.9-2.6c1.9-1.9,2.9-4.3,2.9-7.3c0-2.8-0.8-5.1-2.5-6.9c-1.8-2-4.2-3-7.3-3 c-2.8,0-5.1,0.9-7,2.8c-1.8,1.9-2.7,4.3-2.7,7.2c0,3.1,1,5.6,3,7.5C427.7,61,429.9,61.8,432.6,61.8z M427.5,46.3 c1.3-1.4,2.9-2.1,5-2.1c2.2,0,3.9,0.7,5.1,2.1c1.2,1.4,1.8,3.2,1.8,5.5c0,2.3-0.6,4.2-1.9,5.6c-1.3,1.4-2.9,2.1-5,2.1 c-2.1,0-3.8-0.7-5-2.1c-1.2-1.4-1.9-3.2-1.9-5.6C425.7,49.6,426.3,47.7,427.5,46.3z"></path> <path class="st0" d="M374.4,56.5h7.5l2,5.1h2.8L379.2,42h-1.7L370,61.6h2.6L374.4,56.5z M377.5,48.3c0.4-1,0.6-1.8,0.8-2.4h0 c0.1,0.6,0.4,1.4,0.7,2.4l2.1,5.9h-5.7L377.5,48.3z"></path> <path class="st0" d="M317.7,59c-0.7,0.4-1.5,0.6-2.5,0.6c-1.6,0-3-0.5-4.3-1.4l-1.2,2c1.6,1.1,3.5,1.6,5.6,1.6 c1.8,0,3.4-0.5,4.6-1.4c1.2-1,1.8-2.2,1.8-3.8c0-1.7-0.7-3.1-2.2-4.3c-1.4-0.9-2.8-1.7-4.1-2.6c-1.5-1-2.2-2-2.2-3.1 c0-0.8,0.3-1.4,1-1.9c0.6-0.4,1.4-0.6,2.3-0.6c1.5,0,3,0.4,4.3,1.3l0-2.6c-1.3-0.7-2.8-1-4.5-1c-1.8,0-3.3,0.5-4.3,1.5 c-1,0.9-1.5,2.1-1.5,3.5c0,1.4,0.5,2.5,1.4,3.5c0.6,0.6,1.6,1.3,2.9,2.1c1.5,0.9,2.5,1.5,2.9,1.8c0.9,0.7,1.3,1.6,1.3,2.5 C318.9,57.8,318.5,58.5,317.7,59z"></path> <path class="st0" d="M410.9,39.8c0-0.5,0.2-0.7,0.6-0.7c0.3,0,0.7,0.1,1.2,0.4l0.9,0.4c0.7,0.3,1.2,0.4,1.7,0.4 c0.6,0,1.1-0.2,1.5-0.6c0.4-0.4,0.6-0.9,0.6-1.6v-0.7h-1.6v0.3c0,0.5-0.2,0.7-0.6,0.7c-0.2,0-0.6-0.1-1.2-0.4l-0.9-0.4 c-0.6-0.3-1.2-0.4-1.7-0.4c-0.6,0-1.1,0.2-1.5,0.6c-0.4,0.4-0.6,0.9-0.6,1.6V40h1.6V39.8z"></path> <path class="st0" d="M303.3,59c-0.7,0.4-1.5,0.6-2.5,0.6c-1.6,0-3-0.5-4.3-1.4l-1.2,2c1.6,1.1,3.5,1.6,5.6,1.6 c1.8,0,3.4-0.5,4.6-1.4c1.2-1,1.8-2.2,1.8-3.8h0c0-1.7-0.7-3.1-2.2-4.3c-1.4-0.9-2.7-1.7-4.1-2.6c-1.5-1-2.2-2-2.2-3.1 c0-0.8,0.3-1.4,1-1.9c0.6-0.4,1.4-0.6,2.3-0.6c1.5,0,3,0.4,4.3,1.3l0-2.6c-1.3-0.7-2.8-1-4.5-1c-1.8,0-3.3,0.5-4.3,1.5 c-1,0.9-1.5,2.1-1.5,3.5c0,1.4,0.5,2.5,1.4,3.5c0.6,0.6,1.6,1.3,2.9,2.1c1.5,0.9,2.5,1.5,2.9,1.8c0.9,0.7,1.3,1.6,1.3,2.5 C304.5,57.8,304.1,58.5,303.3,59z"></path> <path class="st0" d="M360.5,58.2c-1.5,0.8-3.1,1.2-4.7,1.2c-2.1,0-3.9-0.7-5.1-2.2c-1.2-1.4-1.9-3.2-1.9-5.5c0-2.2,0.6-4,1.9-5.4 c1.3-1.5,3.1-2.2,5.2-2.2c1.8,0,3.4,0.5,5,1.4l0-2.6c-1.3-0.8-2.9-1.1-5-1.1c-2.9,0-5.4,1-7.2,2.9c-1.8,1.9-2.8,4.3-2.8,7.2 c0,2.9,0.8,5.2,2.5,7c1.7,1.9,4.1,2.8,7,2.8c2,0,3.9-0.5,5.8-1.6L360.5,58.2z"></path> <path class="st0" d="M281.4,56.5h7.5l2,5.1h2.8L286.1,42h-1.7L277,61.6h2.6L281.4,56.5z M284.5,48.3c0.4-1,0.6-1.8,0.8-2.4h0h0 c0.1,0.6,0.4,1.4,0.7,2.4l2,5.9h-5.7L284.5,48.3z"></path> <path class="st0" d="M616.8,77.8h-2.2c-0.1,0-0.2,0-0.3,0c-11.6,0-21.5,4.2-29.9,12.4c-8,8-12.2,17.8-12.5,29.1v2.6 c0.2,5,1,9.6,2.7,13.9c2.1,5.5,5.4,10.5,9.8,15.1c6,5.9,12.9,9.7,20.5,11.4l9.6,1.1h2.2l8.7-1.1c6.9-1.6,13.1-4.8,18.6-9.6 c0.6,4.9,2.7,8.2,6.7,9.6l3.1,0.8l4.4,0.3V120c-0.1-11.5-4.2-21.4-12.5-29.8C637.8,82.2,628.1,78.1,616.8,77.8z M638.7,136.9 c-0.9,1.1-1.9,2.2-2.9,3.4c-5.7,5.7-12.4,8.6-20.1,8.8h-1c-7.5-0.1-14-2.9-19.4-8.5c-1.5-1.4-2.8-2.9-3.9-4.5 c-3.2-4.5-4.8-9.6-4.8-15.3c0-8,2.9-14.8,8.7-20.4c5.4-5.4,11.8-8.2,19.4-8.2h1c7.7,0,14.4,2.9,20.1,8.7c5.4,5.4,8.1,11.9,8.2,19.4 C643.9,126.9,642.1,132.2,638.7,136.9z"></path> <path class="st0" d="M901.9,77.8c-11.8,0-21.9,4.2-30.1,12.5c-8.1,8-12.3,17.7-12.5,29v44.6l4.4-0.1c6.9-1.1,10.2-5.9,10-14.4v-28 c0.1-8.3,3-15.3,8.7-21c5.4-5.4,12.1-8.2,20.2-8.3h14.1c8.5,0.3,13.3-3,14.3-10l0.3-4.4H901.9z"></path> <path class="st0" d="M564.1,77.9c-5.2,0-8.9,3.3-11.2,9.8l-21.3,57.9c-0.2,0.2-0.4,0.5-0.6,0.7c-0.7,0.6-1.5,1-2.4,1 c-1.2,0-2.1-0.3-2.8-1c-0.2-0.2-0.3-0.4-0.5-0.6l-21.2-58c-2.9-7.8-7.7-11-14.6-9.4l-4.2,1.4l26.6,70.9c0.8,2.2,1.7,4.1,2.9,5.6 c0.6,0.8,1.2,1.6,1.9,2.3c3.2,3.2,7.1,4.8,11.6,4.9h0.8c4.5-0.2,8.1-1.8,11.1-4.9c1.4-1.4,2.4-2.8,3.2-4.4c0.6-1.1,1.1-2.2,1.6-3.5 l26.5-70.9l-4.1-1.4C566.2,78,565.1,77.9,564.1,77.9z"></path> <path class="st0" d="M435,90.2c-8-8-17.6-12.1-29-12.4h-2.2c-0.1,0-0.2,0-0.3,0c-11.5,0-21.5,4.2-29.9,12.4h0 c-8,8-12.1,17.8-12.5,29.1v2.6c0.1,3.6,0.6,7,1.5,10.3c1.9,7,5.6,13.2,11,18.7c6,5.9,12.9,9.7,20.5,11.4l9.7,1.1l0,0h2.2l8.7-1.1 c6.9-1.6,13.1-4.8,18.6-9.6c0.6,4.9,2.8,8.2,6.7,9.6l3.1,0.8l4.4,0.3V120c0-6-1.2-11.7-3.5-16.9C441.9,98.5,438.9,94.1,435,90.2z M430.2,133.2c-1.3,2.6-3,4.9-5.2,7c-5.7,5.7-12.4,8.6-20.1,8.8h-1c-7.5-0.1-14-2.9-19.4-8.5c-2.7-2.6-4.7-5.3-6.1-8.2 c-1.7-3.5-2.6-7.4-2.6-11.6c0-8,2.9-14.8,8.7-20.4c5.4-5.4,11.8-8.2,19.4-8.2h1c7.7,0,14.4,2.9,20.1,8.7c5.4,5.4,8.1,11.9,8.2,19.4 C433.1,125.4,432.1,129.5,430.2,133.2z"></path> <path class="st0" d="M338.8,89.1c-8.1-7.8-17.9-11.6-29.3-11.6c-11.8,0.1-21.9,4.2-30.1,12.4l-30.9,30.8c1.1,1.2,2.2,2.2,3.4,3 c2.9,2.1,5.7,2.9,8.6,2.3c2.8-0.4,5.7-2.3,8.5-5.4l20.2-20.2c5.6-5.6,12.2-8.4,19.9-8.3c8.1,0,15.1,2.9,21,8.8 c5.4,5.2,8,11.8,7.9,19.6c0,2.9-0.3,5.7-1,8.2c-1.2,4.5-3.6,8.4-6.9,11.8c-5.7,5.7-12.6,8.5-20.7,8.5c-7.6,0.1-14.2-2.6-19.8-8.2 c-5.3-4.8-10.6-5.4-15.7-1.7l-3.3,3l9.2,9.2c8.2,8.3,18.2,12.4,30.1,12.4c11.4,0,21.2-3.9,29.3-11.6l2-2c5.8-6.2,9.5-13.2,11-21.2 c0.4-2.6,0.7-5.3,0.7-8.1c-0.1-11.8-4.3-21.9-12.5-30.3L338.8,89.1z"></path> <path class="st0" d="M489.2,148c-3.3-1.4-6.2-3.4-8.8-6c-2.9-2.9-5-6-6.5-9.6c-1.4-3.4-2.1-7.2-2.2-11.3v-28V60.7 c0.3-8.5-3-13.3-9.9-14.4l-4.5-0.1v32.3v44.6c0.1,3.1,0.4,6.1,1.1,8.9c1.7,7.5,5.5,14.2,11.5,20c8,8.1,17.7,12.3,29.2,12.5 c-0.2-3.5-1.2-6.8-2.8-9.8C494.4,151.3,492.1,149,489.2,148z"></path> <g> <path class="st0" d="M837.3,90.9c-8-8-17.7-12.2-29-12.5h-2.2c-0.2,0-0.3,0-0.5,0c-11.5,0-21.3,4.2-29.6,12.5 c-8,8.1-12.2,17.7-12.5,29v2.9c0.1,4.6,0.9,8.8,2.4,13c2,5.9,5.4,11.2,10.1,16c8.4,8.3,18.4,12.5,30.1,12.5h2.2 c11.3-0.4,20.9-4.5,29-12.5c4.4-4.4,7.6-9.3,9.6-14.6c1.9-4.9,2.8-10,2.9-15.5v-0.6C849.8,109.3,845.6,99.3,837.3,90.9z M835.4,122.6c-0.2,5.2-1.7,10-4.6,14.3c-1.1,1.4-2.2,2.9-3.6,4.2c-5.7,5.7-12.4,8.6-20.1,8.7c-8.2,0-15-2.7-20.4-8.3 c-1.7-1.7-3.3-3.5-4.5-5.4c-2.8-4.4-4.2-9.2-4.2-14.4v-0.6c0-7.7,2.9-14.3,8.6-20c5.4-5.4,11.8-8.2,19.4-8.3v0l1,0.2 c7.7,0,14.4,2.9,20.1,8.7c5.4,5.4,8.1,11.8,8.2,19.4V122.6z"></path> <path class="st0" d="M739.9,59.2v28c0,0.6-0.1,1.2-0.1,1.8c-0.3-0.2-0.6-0.5-0.8-0.7c-7.4-6.4-16.1-9.7-26.2-9.9h-2.1 c-11.7,0-21.7,4.2-30.1,12.5c-8.1,8.1-12.3,17.7-12.5,29v2.8c0.1,4,0.7,7.9,1.8,11.5c2,6.4,5.5,12.1,10.7,17.2 c3.7,3.7,7.8,6.7,12.2,8.7c5.4,2.6,11.4,3.9,17.9,3.9h2.1c6.1-0.1,11.8-1.4,16.9-3.9c4.4-2,8.5-4.9,12.1-8.7 c4.7-4.7,8.1-10,10.2-15.9c1.5-4.3,2.2-8.9,2.2-13.7l0,0v-0.1c0,0,0,0,0,0h0l0,0h0V89.8V44.7l-4.4,0.1 C742.9,45.9,739.6,50.7,739.9,59.2z M731.7,140.9c-5.7,5.7-12.3,8.6-20,8.7h-1c-7.6-0.1-14.1-2.9-19.5-8.3c-2.2-2.2-4-4.5-5.3-6.9 c-2.2-4-3.4-8.5-3.4-13.4c0.1-7.7,3-14.4,8.7-20.1c5.4-5.4,11.9-8.2,19.5-8.2h1c7.7,0.1,14.3,3,20,8.7c5.4,5.4,8.2,12,8.3,19.6 l0,0.3c-0.1,5.1-1.3,9.8-3.8,13.9C735,137.3,733.5,139.2,731.7,140.9z"></path> </g> </g> </svg> 